:FULLY-SPECIFIED
:FORCE-ALL-JOINTS-BE-3DOF
:DEGREES
1
root -2.95645 16.8291 -36.2757 3.79203 -0.409345 -2.77144
lfemur -18.1857 -3.85478 -7.37129
ltibia 37.6337 0 0
lfoot -17.8071 6.78532 0
ltoes -26.1578 0 0
rfemur -19.1521 0.15077 14.7318
rtibia 40.3652 0 0
rfoot -23.1652 -2.86285 0
rtoes -21.0274 0 0
lowerback 7.02591 2.55716 -1.97249
upperback -3.14202 3.31583 1.27229
thorax -7.43554 1.75645 1.99661
lowerneck -4.68188 -4.04088 -6.84108
upperneck 4.69893 -5.30737 6.47589
head 2.76948 -2.5844 3.14763
lclavicle 1.91563e-15 -9.24349e-15 0
lhumerus -27.0689 -5.33108 89.6453
lradius 25.7364 0 0
lwrist -30.6252 0 0
lhand -28.8405 29.9909 0
lfingers 7.12502 0 0
lthumb -2.19771 59.9594 0
rclavicle 1.91563e-15 -9.24349e-15 0
rhumerus -32.8355 4.71181 -81.727
rradius 32.9783 0 0
rwrist 3.84135 0 0
rhand -24.1523 -25.0894 0
rfingers 7.12502 0 0
rthumb 2.33029 -55.0564 0
2
root -2.95726 16.8257 -36.2792 3.72266 -0.423542 -2.75983
lfemur -18.1496 -3.6819 -7.40158
ltibia 37.6863 0 0
lfoot -17.8348 6.70285 0
ltoes -25.8307 0 0
rfemur -19.1396 0.0530873 14.7201
rtibia 40.448 0 0
rfoot -23.1687 -2.73533 0
rtoes -20.6664 0 0
lowerback 7.14168 2.55089 -1.97408
upperback -3.12514 3.3054 1.27394
thorax -7.48412 1.75141 1.997
lowerneck -4.66286 -4.03279 -6.83856
upperneck 4.68719 -5.29733 6.476
head 2.76112 -2.57966 3.14784
lclavicle 2.02699e-15 -9.24137e-15 0
lhumerus -27.054 -5.32494 89.6635
lradius 25.7346 0 0
lwrist -30.6077 0 0
lhand -28.8429 29.9825 0
lfingers 7.12502 0 0
lthumb -2.19999 59.951 0
rclavicle 2.02699e-15 -9.24137e-15 0
rhumerus -32.8209 4.66473 -81.6959
rradius 32.914 0 0
rwrist 3.8234 0 0
rhand -24.1055 -25.1261 0
rfingers 7.12502 0 0
rthumb 2.37552 -55.0924 0
3
root -2.95806 16.8223 -36.2826 3.65329 -0.43774 -2.74821
lfemur -18.1135 -3.50901 -7.43186
ltibia 37.7389 0 0
lfoot -17.8625 6.62038 0
ltoes -25.5036 0 0
rfemur -19.127 -0.0445954 14.7084
rtibia 40.5309 0 0
rfoot -23.1722 -2.6078 0
rtoes -20.3053 0 0
lowerback 7.25745 2.54463 -1.97568
upperback -3.10825 3.29497 1.27559
thorax -7.53269 1.74637 1.99739
lowerneck -4.64384 -4.0247 -6.83604
upperneck 4.67546 -5.28729 6.47612
head 2.75275 -2.57492 3.14805
lclavicle 2.13835e-15 -9.23925e-15 0
lhumerus -27.0392 -5.31881 89.6817
lradius 25.7327 0 0
lwrist -30.5902 0 0
lhand -28.8452 29.9742 0
lfingers 7.12502 0 0
lthumb -2.20227 59.9426 0
rclavicle 2.13835e-15 -9.23925e-15 0
rhumerus -32.8064 4.61766 -81.6649
rradius 32.8497 0 0
rwrist 3.80545 0 0
rhand -24.0586 -25.1628 0
rfingers 7.12502 0 0
rthumb 2.42075 -55.1284 0
4
root -2.95887 16.8189 -36.2861 3.58392 -0.451937 -2.7366
lfemur -18.0774 -3.33613 -7.46215
ltibia 37.7914 0 0
lfoot -17.8903 6.53791 0
ltoes -25.1764 0 0
rfemur -19.1145 -0.142278 14.6968
rtibia 40.6137 0 0
rfoot -23.1756 -2.48028 0
rtoes -19.9443 0 0
lowerback 7.37321 2.53836 -1.97727
upperback -3.09137 3.28455 1.27724
thorax -7.58127 1.74133 1.99778
lowerneck -4.62482 -4.01661 -6.83352
upperneck 4.66372 -5.27725 6.47623
head 2.74439 -2.57018 3.14826
lclavicle 2.24972e-15 -9.23713e-15 0
lhumerus -27.0243 -5.31267 89.6999
lradius 25.7309 0 0
lwrist -30.5728 0 0
lhand -28.8476 29.9658 0
lfingers 7.12502 0 0
lthumb -2.20455 59.9342 0
rclavicle 2.24972e-15 -9.23713e-15 0
rhumerus -32.7918 4.57058 -81.6338
rradius 32.7853 0 0
rwrist 3.7875 0 0
rhand -24.0118 -25.1995 0
rfingers 7.12502 0 0
rthumb 2.46598 -55.1644 0
5
root -2.95967 16.8155 -36.2895 3.51455 -0.466135 -2.72498
lfemur -18.0413 -3.16325 -7.49244
ltibia 37.844 0 0
lfoot -17.918 6.45544 0
ltoes -24.8493 0 0
rfemur -19.102 -0.239961 14.6851
rtibia 40.6966 0 0
rfoot -23.1791 -2.35276 0
rtoes -19.5832 0 0
lowerback 7.48898 2.5321 -1.97887
upperback -3.07448 3.27412 1.27889
thorax -7.62985 1.73629 1.99817
lowerneck -4.60581 -4.00852 -6.831
upperneck 4.65199 -5.26721 6.47634
head 2.73602 -2.56544 3.14848
lclavicle 2.36108e-15 -9.23501e-15 0
lhumerus -27.0094 -5.30653 89.7181
lradius 25.729 0 0
lwrist -30.5553 0 0
lhand -28.8499 29.9575 0
lfingers 7.12502 0 0
lthumb -2.20683 59.9259 0
rclavicle 2.36108e-15 -9.23501e-15 0
rhumerus -32.7773 4.5235 -81.6028
rradius 32.721 0 0
rwrist 3.76955 0 0
rhand -23.965 -25.2362 0
rfingers 7.12502 0 0
rthumb 2.51121 -55.2004 0
6
root -2.96048 16.8121 -36.293 3.44519 -0.480332 -2.71337
lfemur -18.0052 -2.99036 -7.52273
ltibia 37.8966 0 0
lfoot -17.9457 6.37298 0
ltoes -24.5222 0 0
rfemur -19.0894 -0.337643 14.6734
rtibia 40.7794 0 0
rfoot -23.1826 -2.22523 0
rtoes -19.2222 0 0
lowerback 7.60475 2.52583 -1.98046
upperback -3.0576 3.26369 1.28055
thorax -7.67843 1.73125 1.99856
lowerneck -4.58679 -4.00043 -6.82848
upperneck 4.64025 -5.25717 6.47646
head 2.72766 -2.5607 3.14869
lclavicle 2.47244e-15 -9.23288e-15 0
lhumerus -26.9945 -5.30039 89.7363
lradius 25.7272 0 0
lwrist -30.5378 0 0
lhand -28.8523 29.9491 0
lfingers 7.12502 0 0
lthumb -2.20911 59.9175 0
rclavicle 2.47244e-15 -9.23288e-15 0
rhumerus -32.7627 4.47642 -81.5717
rradius 32.6567 0 0
rwrist 3.7516 0 0
rhand -23.9181 -25.2729 0
rfingers 7.12502 0 0
rthumb 2.55644 -55.2365 0
7
root -2.96129 16.8086 -36.2964 3.37582 -0.49453 -2.70175
lfemur -17.9691 -2.81748 -7.55301
ltibia 37.9492 0 0
lfoot -17.9734 6.29051 0
ltoes -24.1951 0 0
rfemur -19.0769 -0.435326 14.6617
rtibia 40.8623 0 0
rfoot -23.1861 -2.09771 0
rtoes -18.8611 0 0
lowerback 7.72052 2.51956 -1.98206
upperback -3.04071 3.25326 1.2822
thorax -7.727 1.72621 1.99896
lowerneck -4.56777 -3.99234 -6.82596
upperneck 4.62851 -5.24713 6.47657
head 2.71929 -2.55597 3.1489
lclavicle 2.5838e-15 -9.23076e-15 0
lhumerus -26.9797 -5.29426 89.7546
lradius 25.7254 0 0
lwrist -30.5203 0 0
lhand -28.8547 29.9407 0
lfingers 7.12502 0 0
lthumb -2.21139 59.9091 0
rclavicle 2.5838e-15 -9.23076e-15 0
rhumerus -32.7482 4.42935 -81.5407
rradius 32.5924 0 0
rwrist 3.73365 0 0
rhand -23.8713 -25.3096 0
rfingers 7.12502 0 0
rthumb 2.60167 -55.2725 0
8
root -2.96209 16.8052 -36.2999 3.30645 -0.508727 -2.69014
lfemur -17.933 -2.64459 -7.5833
ltibia 38.0017 0 0
lfoot -18.0012 6.20804 0
ltoes -23.8679 0 0
rfemur -19.0644 -0.533009 14.6501
rtibia 40.9451 0 0
rfoot -23.1895 -1.97018 0
rtoes -18.5001 0 0
lowerback 7.83629 2.5133 -1.98365
upperback -3.02383 3.24283 1.28385
thorax -7.77558 1.72118 1.99935
lowerneck -4.54875 -3.98425 -6.82344
upperneck 4.61678 -5.2371 6.47668
head 2.71093 -2.55123 3.14911
lclavicle 2.69516e-15 -9.22864e-15 0
lhumerus -26.9648 -5.28812 89.7728
lradius 25.7235 0 0
lwrist -30.5029 0 0
lhand -28.857 29.9324 0
lfingers 7.12502 0 0
lthumb -2.21367 59.9007 0
rclavicle 2.69516e-15 -9.22864e-15 0
rhumerus -32.7336 4.38227 -81.5096
rradius 32.5281 0 0
rwrist 3.71571 0 0
rhand -23.8244 -25.3463 0
rfingers 7.12502 0 0
rthumb 2.64689 -55.3085 0
9
root -2.9629 16.8018 -36.3033 3.23708 -0.522925 -2.67852
lfemur -17.8969 -2.47171 -7.61359
ltibia 38.0543 0 0
lfoot -18.0289 6.12557 0
ltoes -23.5408 0 0
rfemur -19.0518 -0.630691 14.6384
rtibia 41.028 0 0
rfoot -23.193 -1.84266 0
rtoes -18.1391 0 0
lowerback 7.95205 2.50703 -1.98525
upperback -3.00694 3.23241 1.2855
thorax -7.82416 1.71614 1.99974
lowerneck -4.52973 -3.97616 -6.82092
upperneck 4.60504 -5.22706 6.4768
head 2.70256 -2.54649 3.14932
lclavicle 2.80653e-15 -9.22652e-15 0
lhumerus -26.9499 -5.28198 89.791
lradius 25.7217 0 0
lwrist -30.4854 0 0
lhand -28.8594 29.924 0
lfingers 7.12502 0 0
lthumb -2.21595 59.8923 0
rclavicle 2.80653e-15 -9.22652e-15 0
rhumerus -32.7191 4.33519 -81.4786
rradius 32.4638 0 0
rwrist 3.69776 0 0
rhand -23.7776 -25.383 0
rfingers 7.12502 0 0
rthumb 2.69212 -55.3445 0
10
root -2.9637 16.7984 -36.3068 3.16771 -0.537122 -2.66691
lfemur -17.8608 -2.29883 -7.64387
ltibia 38.1069 0 0
lfoot -18.0566 6.0431 0
ltoes -23.2137 0 0
rfemur -19.0393 -0.728374 14.6267
rtibia 41.1108 0 0
rfoot -23.1965 -1.71514 0
rtoes -17.778 0 0
lowerback 8.06782 2.50077 -1.98684
upperback -2.99006 3.22198 1.28715
thorax -7.87274 1.7111 2.00013
lowerneck -4.51071 -3.96807 -6.8184
upperneck 4.59331 -5.21702 6.47691
head 2.6942 -2.54175 3.14953
lclavicle 2.91789e-15 -9.2244e-15 0
lhumerus -26.9351 -5.27585 89.8092
lradius 25.7198 0 0
lwrist -30.4679 0 0
lhand -28.8617 29.9157 0
lfingers 7.12502 0 0
lthumb -2.21823 59.8839 0
rclavicle 2.91789e-15 -9.2244e-15 0
rhumerus -32.7045 4.28812 -81.4475
rradius 32.3994 0 0
rwrist 3.67981 0 0
rhand -23.7308 -25.4197 0
rfingers 7.12502 0 0
rthumb 2.73735 -55.3805 0
